<?xml version="1.0"?><!DOCTYPE svg PUBLIC "-//W3C//DTD SVG 1.1//EN" "http://www.w3.org/Graphics/SVG/1.1/DTD/svg11.dtd"><svg xmlns="http://www.w3.org/2000/svg" xmlns:xlink="http://www.w3.org/1999/xlink"><symbol viewBox="0 -128 480 480" id="bus" xmlns="http://www.w3.org/2000/svg"><path d="M476.406 86.398l-24.734-54.511A54.745 54.745 0 0 0 402.078 0H47.441C21.25.027.027 21.25 0 47.441V166c.02 14.352 11.648 25.98 26 26h38.8c3.786 18.645 20.177 32.04 39.2 32.04s35.414-13.395 39.2-32.04h193.6c3.786 18.645 20.177 32.04 39.2 32.04s35.414-13.395 39.2-32.04h42.562c12.277-.012 22.226-9.96 22.238-22.238V102.96a39.851 39.851 0 0 0-3.594-16.563zm-17.344.524L384 80.64V47.039l53.938-6.742zM104 208c-13.254 0-24-10.746-24-24s10.746-24 24-24 24 10.746 24 24-10.746 24-24 24zm272 0c-13.254 0-24-10.746-24-24s10.746-24 24-24 24 10.746 24 24-10.746 24-24 24zm81.762-32h-42.563c-3.785-18.645-20.176-32.04-39.199-32.04s-35.414 13.395-39.2 32.04H143.2c-3.786-18.645-20.177-32.04-39.2-32.04S68.586 157.356 64.8 176H26c-5.52-.008-9.992-4.48-10-10V47.441C16.02 30.082 30.082 16.02 47.441 16h354.637a38.567 38.567 0 0 1 25.29 9.52L375.503 32H64a8 8 0 0 0-8 8v48a8 8 0 0 0 8 8h311.664L464 103.36v66.402a6.248 6.248 0 0 1-6.238 6.238zM72 80V48h56v32zm72-32h64v32h-64zm80 0h56v32h-56zm72 0h72v32h-72zm0 0"/></symbol><symbol viewBox="0 0 512.043 512.043" id="bus-stop" xmlns="http://www.w3.org/2000/svg"><path d="M473.21.021H200.923c-22.457 1.146-39.78 20.202-38.787 42.667v349.867c0 .128.067.234.073.36.028.964.22 1.917.569 2.816l.053.18.014.048 20.196 46.408a16.123 16.123 0 0 0 14.642 9.921h7.121v34.133a25.29 25.29 0 0 0 1.573 8.533H102.402v-153.6c-.015-14.132-11.468-25.585-25.6-25.6V170.095c35.76-4.505 61.856-36.034 59.599-72.006-2.257-35.972-32.09-63.992-68.133-63.992S2.393 62.117.136 98.089c-2.257 35.972 23.839 67.501 59.599 72.006v145.659c-14.132.015-25.585 11.468-25.6 25.6v153.6h-25.6c-4.713 0-8.533 3.82-8.533 8.533s3.82 8.533 8.533 8.533h494.933a8.533 8.533 0 0 0 0-17.066h-35.706a25.274 25.274 0 0 0 1.572-8.533v-34.133h7.117a16.136 16.136 0 0 0 14.642-9.912l20.2-46.417.014-.045c.026-.061.031-.128.056-.19.35-.902.543-1.857.569-2.824.005-.121.07-.223.07-.345V42.688c.992-22.466-16.333-41.522-38.792-42.667zm-456.141 102.4c0-28.277 22.923-51.2 51.2-51.2s51.2 22.923 51.2 51.2-22.923 51.2-51.2 51.2c-28.265-.031-51.169-22.936-51.2-51.2zm68.266 392.534H51.202v-153.6a8.544 8.544 0 0 1 8.533-8.533h17.067a8.544 8.544 0 0 1 8.533 8.533v153.6zm170.667-8.534a8.544 8.544 0 0 1-8.533 8.533h-17.067a8.544 8.544 0 0 1-8.533-8.533v-34.133h34.133v34.133zm15.494 8.534a25.274 25.274 0 0 0 1.572-8.533v-34.133h128v34.133a25.29 25.29 0 0 0 1.573 8.533H271.496zm180.773-8.534a8.54 8.54 0 0 1-8.533 8.533h-17.067a8.54 8.54 0 0 1-8.533-8.533v-34.133h34.133v34.133zm23.325-51.2h-277.05l-14.854-34.133h306.763l-14.859 34.133zm-176.925-51.2v-17.067a8.544 8.544 0 0 1 8.533-8.533h59.733a8.544 8.544 0 0 1 8.533 8.533v17.067h-76.799zM494.935 42.688v341.333h-102.4v-17.067c-.015-14.132-11.468-25.585-25.6-25.6h-59.733c-14.132.015-25.585 11.468-25.6 25.6v17.067h-102.4V42.688c-.965-13.033 8.705-24.43 21.721-25.6H473.21c13.017 1.17 22.689 12.566 21.725 25.6z"/><path d="M452.269 34.155h-230.4c-14.132.015-25.585 11.468-25.6 25.6v8.533c.015 14.132 11.468 25.585 25.6 25.6h230.4c14.132-.015 25.585-11.468 25.6-25.6v-8.533c-.016-14.132-11.468-25.585-25.6-25.6zm8.533 34.133a8.542 8.542 0 0 1-8.533 8.533h-230.4a8.544 8.544 0 0 1-8.533-8.533v-8.533a8.544 8.544 0 0 1 8.533-8.533h230.4a8.54 8.54 0 0 1 8.533 8.533v8.533zM230.402 298.688c-18.851 0-34.133 15.282-34.133 34.133.022 18.842 15.291 34.112 34.133 34.133 18.851 0 34.133-15.282 34.133-34.133 0-18.851-15.282-34.133-34.133-34.133zm0 51.2c-9.426 0-17.067-7.641-17.067-17.067.009-9.422 7.645-17.057 17.067-17.067 9.426 0 17.067 7.641 17.067 17.067s-7.641 17.067-17.067 17.067zM443.735 298.688c-18.851 0-34.133 15.282-34.133 34.133 0 18.851 15.282 34.133 34.133 34.133 18.851 0 34.133-15.282 34.133-34.133-.019-18.843-15.29-34.113-34.133-34.133zm0 51.2c-9.426 0-17.067-7.641-17.067-17.067s7.641-17.067 17.067-17.067 17.067 7.641 17.067 17.067c-.011 9.421-7.645 17.056-17.067 17.067zM452.269 110.955h-230.4c-14.132.015-25.585 11.468-25.6 25.6v119.467c.015 14.132 11.468 25.585 25.6 25.6h230.4c14.132-.015 25.585-11.468 25.6-25.6V136.555c-.016-14.132-11.468-25.585-25.6-25.6zm8.533 145.066a8.542 8.542 0 0 1-8.533 8.533h-230.4a8.544 8.544 0 0 1-8.533-8.533V136.555a8.544 8.544 0 0 1 8.533-8.533h230.4a8.54 8.54 0 0 1 8.533 8.533v119.466z"/></symbol><symbol viewBox="0 0 330 330" id="chat" xmlns="http://www.w3.org/2000/svg"><path d="M315 0H15C6.716 0 0 6.716 0 15v230c0 8.284 6.716 15 15 15h45v55a15 15 0 0 0 23.602 12.289L179.729 260H315c8.284 0 15-6.716 15-15V15c0-8.284-6.715-15-15-15zm-15 230H175c-3.078 0-6.081.947-8.602 2.711L90 286.191V245c0-8.284-6.716-15-15-15H30V30h270v200z"/></symbol><symbol viewBox="0 0 460.298 460.297" id="home" xmlns="http://www.w3.org/2000/svg"><path d="M230.149 120.939L65.986 256.274c0 .191-.048.472-.144.855-.094.38-.144.656-.144.852v137.041c0 4.948 1.809 9.236 5.426 12.847 3.616 3.613 7.898 5.431 12.847 5.431h109.63V303.664h73.097v109.64h109.629c4.948 0 9.236-1.814 12.847-5.435 3.617-3.607 5.432-7.898 5.432-12.847V257.981c0-.76-.104-1.334-.288-1.707L230.149 120.939z"/><path d="M457.122 225.438L394.6 173.476V56.989c0-2.663-.856-4.853-2.574-6.567-1.704-1.712-3.894-2.568-6.563-2.568h-54.816c-2.666 0-4.855.856-6.57 2.568-1.711 1.714-2.566 3.905-2.566 6.567v55.673l-69.662-58.245c-6.084-4.949-13.318-7.423-21.694-7.423-8.375 0-15.608 2.474-21.698 7.423L3.172 225.438c-1.903 1.52-2.946 3.566-3.14 6.136-.193 2.568.472 4.811 1.997 6.713l17.701 21.128c1.525 1.712 3.521 2.759 5.996 3.142 2.285.192 4.57-.476 6.855-1.998L230.149 95.817l197.57 164.741c1.526 1.328 3.521 1.991 5.996 1.991h.858c2.471-.376 4.463-1.43 5.996-3.138l17.703-21.125c1.522-1.906 2.189-4.145 1.991-6.716-.195-2.563-1.242-4.609-3.141-6.132z"/></symbol><symbol viewBox="0 0 480 480" id="microbus" xmlns="http://www.w3.org/2000/svg"><path d="M142.52 312.008a24 24 0 0 0-22.52-16 24 24 0 0 0-22.528 16 22.44 22.44 0 0 0 0 16c4.341 12.44 17.944 19.005 30.384 14.664a23.858 23.858 0 0 0 14.664-14.664 22.45 22.45 0 0 0 0-16zm-22.52 16a8 8 0 1 1 0-16 8 8 0 0 1 0 16zM96 136.008H32v80h144v-80H96zm0 64H48v-48h48v48zm64 0h-48v-48h48v48z"/><path d="M478.16 201.976l-34.664-83.2a23.936 23.936 0 0 0-22.16-14.768H24c-13.255 0-24 10.745-24 24v176c0 13.255 10.745 24 24 24h40.64c4.391 30.574 32.736 51.8 63.311 47.409 24.574-3.529 43.88-22.836 47.409-47.409h129.28c4.391 30.574 32.736 51.8 63.311 47.409 24.574-3.529 43.88-22.836 47.409-47.409H456c13.255 0 24-10.745 24-24v-92.8a23.787 23.787 0 0 0-1.84-9.232zM440 152.008l20 48h-76v-48h56zm-280.8 176c-4.396 21.65-25.51 35.636-47.16 31.24-21.65-4.396-35.636-25.51-31.24-47.16s25.51-35.636 47.16-31.24c18.628 3.783 32.021 20.152 32.04 39.16a40.105 40.105 0 0 1-.8 8zm32.8-16h-16.64c-4.391-30.575-32.736-51.8-63.311-47.409-24.574 3.529-43.88 22.835-47.409 47.409H24a8 8 0 0 1-8-8v-56h176v64zm80-80v80h-64v-160h64v80zm127.2 96c-4.396 21.65-25.51 35.636-47.16 31.24-21.65-4.396-35.636-25.51-31.24-47.16 4.396-21.65 25.51-35.636 47.16-31.24 18.628 3.783 32.021 20.152 32.04 39.16a40.105 40.105 0 0 1-.8 8zm64.8-24a8 8 0 0 1-8 8h-40.64c-4.391-30.575-32.736-51.8-63.311-47.409-24.574 3.529-43.88 22.835-47.409 47.409H288v-64h176v56zm0-72H288v-96h-96v96H16v-104a8 8 0 0 1 8-8h397.336a8 8 0 0 1 7.384 4.92l4.616 11.08H304v80h160v16zm-96-80v48h-48v-48h48z"/><path d="M382.52 312.008a24 24 0 0 0-22.52-16 24 24 0 0 0-22.528 16 22.44 22.44 0 0 0 0 16c4.341 12.44 17.944 19.005 30.384 14.664a23.858 23.858 0 0 0 14.664-14.664 22.45 22.45 0 0 0 0-16zm-22.52 16a8 8 0 1 1 0-16 8 8 0 0 1 0 16z" fill="#d6d6d6"/></symbol><symbol viewBox="0 0 368 368" id="minivan" xmlns="http://www.w3.org/2000/svg"><path d="M216 208h-64c-4.416 0-8 3.576-8 8s3.584 8 8 8h64c4.416 0 8-3.576 8-8s-3.584-8-8-8z"/><path d="M352 160h-35.72l-61.624-92.44A8.01 8.01 0 0 0 248 64H40a7.993 7.993 0 0 0-7.592 5.472l-32 96A8.003 8.003 0 0 0 0 168v88c0 8.824 7.176 16 16 16h32.808c3.72 18.232 19.872 32 39.192 32s35.472-13.768 39.192-32h113.616c3.72 18.232 19.872 32 39.192 32s35.472-13.768 39.192-32H352c8.824 0 16-7.176 16-16v-80c0-8.824-7.176-16-16-16zM192 80h51.72l53.336 80H192V80zM45.768 80H176v80H19.096l26.672-80zM88 288c-13.232 0-24-10.768-24-24s10.768-24 24-24 24 10.768 24 24-10.768 24-24 24zm192 0c-13.232 0-24-10.768-24-24s10.768-24 24-24 24 10.768 24 24-10.768 24-24 24zm72-32h-32.808c-3.72-18.232-19.872-32-39.192-32s-35.472 13.768-39.192 32H127.192c-3.72-18.232-19.872-32-39.192-32s-35.472 13.768-39.192 32H16v-80h336v80z"/></symbol><symbol viewBox="0 0 56.966 56.966" id="search" xmlns="http://www.w3.org/2000/svg"><path d="M55.146 51.887L41.588 37.786A22.926 22.926 0 0 0 46.984 23c0-12.682-10.318-23-23-23s-23 10.318-23 23 10.318 23 23 23c4.761 0 9.298-1.436 13.177-4.162l13.661 14.208c.571.593 1.339.92 2.162.92.779 0 1.518-.297 2.079-.837a3.004 3.004 0 0 0 .083-4.242zM23.984 6c9.374 0 17 7.626 17 17s-7.626 17-17 17-17-7.626-17-17 7.626-17 17-17z"/></symbol><symbol viewBox="0 0 512 512" id="user-profile" xmlns="http://www.w3.org/2000/svg"><path d="M256 0c-57.989 0-105.165 47.176-105.165 105.165 0 57.989 47.176 105.165 105.165 105.165s105.165-47.176 105.165-105.165C361.165 47.176 313.989 0 256 0zm0 160.052c-30.266 0-54.887-24.621-54.887-54.887 0-30.266 24.621-54.887 54.887-54.887s54.887 24.621 54.887 54.887c0 30.266-24.621 54.887-54.887 54.887zM256 260.609c-106.273 0-192.733 86.46-192.733 192.733 0 13.884 11.256 25.139 25.139 25.139h142.455v8.38C230.861 500.744 242.117 512 256 512s25.139-11.256 25.139-25.139v-8.38h142.455c13.883 0 25.139-11.256 25.139-25.139 0-106.273-86.46-192.733-192.733-192.733zm-25.139 167.594H115.766c10.45-58.437 56.659-104.636 115.095-115.083v115.083zm50.278 0V313.119c58.437 10.448 104.646 56.647 115.095 115.083H281.139z"/></symbol><symbol viewBox="0 -64 384 384" id="van" xmlns="http://www.w3.org/2000/svg"><path d="M383.91 111.145a14.717 14.717 0 0 0-.176-1.704 15.065 15.065 0 0 0-.367-1.625c-.078-.289-.094-.586-.191-.87l-28.352-85.067A31.951 31.951 0 0 0 324.473 0H32C14.352 0 0 14.352 0 32v152c0 17.648 14.352 32 32 32h16.719c3.824 22.664 23.539 40 47.281 40s43.45-17.336 47.281-40h97.438c3.824 22.664 23.539 40 47.281 40s43.45-17.336 47.281-40H352c17.648 0 32-14.352 32-32v-72c0-.297-.07-.566-.09-.855zM345.8 96H264V32h60.473zM144 96V32h88v64zm-32-64v64H32V32zM96 224c-8.824 0-16-7.176-16-16s7.176-16 16-16 16 7.176 16 16-7.176 16-16 16zm192 0c-8.824 0-16-7.176-16-16s7.176-16 16-16 16 7.176 16 16-7.176 16-16 16zm64-40h-22.496c-8.313-14.32-23.785-24-41.504-24s-33.191 9.68-41.504 24H137.504c-8.313-14.32-23.785-24-41.504-24s-33.191 9.68-41.504 24H32v-56h168v16c0 8.832 7.168 16 16 16s16-7.168 16-16v-16h120zm0 0"/></symbol><symbol viewBox="0 -96 480 480" id="van2" xmlns="http://www.w3.org/2000/svg"><path d="M470.398 119.2l-76.503-76.513A40.792 40.792 0 0 0 368 32h-32V8a8 8 0 0 0-8-8H64a8 8 0 0 0-8 8v24H40C17.918 32.027.027 49.918 0 72v152a8 8 0 0 0 8 8h56.719a48.006 48.006 0 0 0 20.918 48.395 48.006 48.006 0 0 0 52.726 0A48.006 48.006 0 0 0 159.281 232H336.72a48.006 48.006 0 0 0 20.918 48.395 48.006 48.006 0 0 0 52.726 0A48.006 48.006 0 0 0 431.281 232H448c17.672 0 32-14.328 32-32v-57.52a33 33 0 0 0-9.602-23.28zM368 48a25.29 25.29 0 0 1 14.55 6.023L448.528 120H352V48zm-48-16h-72V16h72zm-160 0V16h72v16zM72 16h72v16H72zm40 256c-17.672 0-32-14.328-32-32s14.328-32 32-32 32 14.328 32 32-14.328 32-32 32zm272 0c-17.672 0-32-14.328-32-32s14.328-32 32-32 32 14.328 32 32-14.328 32-32 32zm80-72c0 8.836-7.164 16-16 16h-22.496a47.888 47.888 0 0 0-83.008 0H153.504a47.888 47.888 0 0 0-83.008 0H16V72c0-13.254 10.746-24 24-24h296v80a8 8 0 0 0 8 8h118.672a16.794 16.794 0 0 1 1.328 6.48zm0 0"/><path d="M296 64H72a8 8 0 0 0-8 8v56a8 8 0 0 0 8 8h224a8 8 0 0 0 8-8V72a8 8 0 0 0-8-8zM80 80h96v40H80zm208 40h-96V80h96zm0 0"/></symbol></svg>