<?xml version="1.0" encoding="iso-8859-1"?><!DOCTYPE svg PUBLIC "-//W3C//DTD SVG 1.1//EN" "http://www.w3.org/Graphics/SVG/1.1/DTD/svg11.dtd"><svg xmlns="http://www.w3.org/2000/svg" xmlns:xlink="http://www.w3.org/1999/xlink"><symbol viewBox="0 0 330 330" id="chat" xmlns="http://www.w3.org/2000/svg"><path d="M315 0H15C6.716 0 0 6.716 0 15v230c0 8.284 6.716 15 15 15h45v55a15 15 0 0 0 23.602 12.289L179.729 260H315c8.284 0 15-6.716 15-15V15c0-8.284-6.715-15-15-15zm-15 230H175c-3.078 0-6.081.947-8.602 2.711L90 286.191V245c0-8.284-6.716-15-15-15H30V30h270v200z"/></symbol><symbol viewBox="0 0 460.298 460.297" id="home" xmlns="http://www.w3.org/2000/svg"><path d="M230.149 120.939L65.986 256.274c0 .191-.048.472-.144.855-.094.38-.144.656-.144.852v137.041c0 4.948 1.809 9.236 5.426 12.847 3.616 3.613 7.898 5.431 12.847 5.431h109.63V303.664h73.097v109.64h109.629c4.948 0 9.236-1.814 12.847-5.435 3.617-3.607 5.432-7.898 5.432-12.847V257.981c0-.76-.104-1.334-.288-1.707L230.149 120.939z"/><path d="M457.122 225.438L394.6 173.476V56.989c0-2.663-.856-4.853-2.574-6.567-1.704-1.712-3.894-2.568-6.563-2.568h-54.816c-2.666 0-4.855.856-6.57 2.568-1.711 1.714-2.566 3.905-2.566 6.567v55.673l-69.662-58.245c-6.084-4.949-13.318-7.423-21.694-7.423-8.375 0-15.608 2.474-21.698 7.423L3.172 225.438c-1.903 1.52-2.946 3.566-3.14 6.136-.193 2.568.472 4.811 1.997 6.713l17.701 21.128c1.525 1.712 3.521 2.759 5.996 3.142 2.285.192 4.57-.476 6.855-1.998L230.149 95.817l197.57 164.741c1.526 1.328 3.521 1.991 5.996 1.991h.858c2.471-.376 4.463-1.43 5.996-3.138l17.703-21.125c1.522-1.906 2.189-4.145 1.991-6.716-.195-2.563-1.242-4.609-3.141-6.132z"/></symbol><symbol viewBox="0 0 56.966 56.966" id="search" xmlns="http://www.w3.org/2000/svg"><path d="M55.146 51.887L41.588 37.786A22.926 22.926 0 0 0 46.984 23c0-12.682-10.318-23-23-23s-23 10.318-23 23 10.318 23 23 23c4.761 0 9.298-1.436 13.177-4.162l13.661 14.208c.571.593 1.339.92 2.162.92.779 0 1.518-.297 2.079-.837a3.004 3.004 0 0 0 .083-4.242zM23.984 6c9.374 0 17 7.626 17 17s-7.626 17-17 17-17-7.626-17-17 7.626-17 17-17z"/></symbol><symbol viewBox="0 0 512 512" id="user-profile" xmlns="http://www.w3.org/2000/svg"><path d="M256 0c-57.989 0-105.165 47.176-105.165 105.165 0 57.989 47.176 105.165 105.165 105.165s105.165-47.176 105.165-105.165C361.165 47.176 313.989 0 256 0zm0 160.052c-30.266 0-54.887-24.621-54.887-54.887 0-30.266 24.621-54.887 54.887-54.887s54.887 24.621 54.887 54.887c0 30.266-24.621 54.887-54.887 54.887zM256 260.609c-106.273 0-192.733 86.46-192.733 192.733 0 13.884 11.256 25.139 25.139 25.139h142.455v8.38C230.861 500.744 242.117 512 256 512s25.139-11.256 25.139-25.139v-8.38h142.455c13.883 0 25.139-11.256 25.139-25.139 0-106.273-86.46-192.733-192.733-192.733zm-25.139 167.594H115.766c10.45-58.437 56.659-104.636 115.095-115.083v115.083zm50.278 0V313.119c58.437 10.448 104.646 56.647 115.095 115.083H281.139z"/></symbol><symbol viewBox="0 -64 384 384" id="van" xmlns="http://www.w3.org/2000/svg"><path d="M383.91 111.145a14.717 14.717 0 0 0-.176-1.704 15.065 15.065 0 0 0-.367-1.625c-.078-.289-.094-.586-.191-.87l-28.352-85.067A31.951 31.951 0 0 0 324.473 0H32C14.352 0 0 14.352 0 32v152c0 17.648 14.352 32 32 32h16.719c3.824 22.664 23.539 40 47.281 40s43.45-17.336 47.281-40h97.438c3.824 22.664 23.539 40 47.281 40s43.45-17.336 47.281-40H352c17.648 0 32-14.352 32-32v-72c0-.297-.07-.566-.09-.855zM345.8 96H264V32h60.473zM144 96V32h88v64zm-32-64v64H32V32zM96 224c-8.824 0-16-7.176-16-16s7.176-16 16-16 16 7.176 16 16-7.176 16-16 16zm192 0c-8.824 0-16-7.176-16-16s7.176-16 16-16 16 7.176 16 16-7.176 16-16 16zm64-40h-22.496c-8.313-14.32-23.785-24-41.504-24s-33.191 9.68-41.504 24H137.504c-8.313-14.32-23.785-24-41.504-24s-33.191 9.68-41.504 24H32v-56h168v16c0 8.832 7.168 16 16 16s16-7.168 16-16v-16h120zm0 0"/></symbol></svg>