<?xml version="1.0" encoding="iso-8859-1"?>
<!-- Generator: Adobe Illustrator 19.0.0, SVG Export Plug-In . SVG Version: 6.00 Build 0)  -->
<svg xmlns="http://www.w3.org/2000/svg" xmlns:xlink="http://www.w3.org/1999/xlink" version="1.1" id="Capa_1" x="0px" y="0px" viewBox="0 0 368 368" style="enable-background:new 0 0 368 368;" xml:space="preserve" width="512px" height="512px">
<g>
	<g>
		<path d="M216,208h-64c-4.416,0-8,3.576-8,8s3.584,8,8,8h64c4.416,0,8-3.576,8-8S220.416,208,216,208z"/>
	</g>
</g>
<g>
	<g>
		<path d="M352,160h-35.72l-61.624-92.44C253.168,65.336,250.672,64,248,64H40c-3.448,0-6.504,2.2-7.592,5.472l-32,96    C0.136,166.288,0,167.144,0,168v88c0,8.824,7.176,16,16,16h32.808c3.72,18.232,19.872,32,39.192,32s35.472-13.768,39.192-32    h113.616c3.72,18.232,19.872,32,39.192,32s35.472-13.768,39.192-32H352c8.824,0,16-7.176,16-16v-80    C368,167.176,360.824,160,352,160z M192,80h51.72l53.336,80H192V80z M45.768,80H176v80H19.096L45.768,80z M88,288    c-13.232,0-24-10.768-24-24s10.768-24,24-24s24,10.768,24,24S101.232,288,88,288z M280,288c-13.232,0-24-10.768-24-24    s10.768-24,24-24s24,10.768,24,24S293.232,288,280,288z M352,256h-32.808c-3.72-18.232-19.872-32-39.192-32    s-35.472,13.768-39.192,32H127.192c-3.72-18.232-19.872-32-39.192-32s-35.472,13.768-39.192,32H16v-80h296h40V256z"/>
	</g>
</g>
<g>
</g>
<g>
</g>
<g>
</g>
<g>
</g>
<g>
</g>
<g>
</g>
<g>
</g>
<g>
</g>
<g>
</g>
<g>
</g>
<g>
</g>
<g>
</g>
<g>
</g>
<g>
</g>
<g>
</g>
</svg>
