<?xml version="1.0" encoding="iso-8859-1"?>
<!-- Generator: Adobe Illustrator 19.0.0, SVG Export Plug-In . SVG Version: 6.00 Build 0)  -->
<svg version="1.1" id="Layer_1" xmlns="http://www.w3.org/2000/svg" xmlns:xlink="http://www.w3.org/1999/xlink" x="0px" y="0px"
	 viewBox="0 0 512 512" style="enable-background:new 0 0 512 512;" xml:space="preserve">
<g>
	<g>
		<path d="M256,0c-57.989,0-105.165,47.176-105.165,105.165c0,57.989,47.176,105.165,105.165,105.165
			s105.165-47.176,105.165-105.165C361.165,47.176,313.989,0,256,0z M256,160.052c-30.266,0-54.887-24.621-54.887-54.887
			c0-30.266,24.621-54.887,54.887-54.887s54.887,24.621,54.887,54.887C310.887,135.431,286.266,160.052,256,160.052z"/>
	</g>
</g>
<g>
	<g>
		<path d="M256,260.609c-106.273,0-192.733,86.46-192.733,192.733c0,13.884,11.256,25.139,25.139,25.139h142.455v8.38
			C230.861,500.744,242.117,512,256,512c13.883,0,25.139-11.256,25.139-25.139v-8.38h142.455c13.883,0,25.139-11.256,25.139-25.139
			C448.733,347.069,362.273,260.609,256,260.609z M230.861,428.203H115.766c10.45-58.437,56.659-104.636,115.095-115.083V428.203z
			 M281.139,428.203V313.119c58.437,10.448,104.646,56.647,115.095,115.083H281.139z"/>
	</g>
</g>
</svg>
