<svg height="384pt" viewBox="0 -64 384 384" width="384pt" xmlns="http://www.w3.org/2000/svg"><path d="m383.910156 111.144531c-.03125-.570312-.078125-1.136719-.175781-1.703125-.085937-.554687-.222656-1.089844-.367187-1.625-.078126-.289062-.09375-.585937-.191407-.871094l-28.351562-85.066406c-4.359375-13.085937-16.558594-21.878906-30.351563-21.878906h-292.472656c-17.648438 0-32 14.351562-32 32v152c0 17.648438 14.351562 32 32 32h16.71875c3.824219 22.664062 23.539062 40 47.28125 40s43.449219-17.335938 47.28125-40h97.4375c3.824219 22.664062 23.539062 40 47.28125 40s43.449219-17.335938 47.28125-40h16.71875c17.648438 0 32-14.351562 32-32v-72c0-.296875-.070312-.566406-.089844-.855469zm-38.109375-15.144531h-81.800781v-64h60.472656zm-201.800781 0v-64h88v64zm-32-64v64h-80v-64zm-16 192c-8.824219 0-16-7.175781-16-16s7.175781-16 16-16 16 7.175781 16 16-7.175781 16-16 16zm192 0c-8.824219 0-16-7.175781-16-16s7.175781-16 16-16 16 7.175781 16 16-7.175781 16-16 16zm64-40h-22.496094c-8.3125-14.320312-23.785156-24-41.503906-24s-33.191406 9.679688-41.503906 24h-108.992188c-8.3125-14.320312-23.785156-24-41.503906-24s-33.191406 9.679688-41.503906 24h-22.496094v-56h168v16c0 8.832031 7.167969 16 16 16s16-7.167969 16-16v-16h120zm0 0"/></svg>