<?xml version="1.0"?>
<svg xmlns="http://www.w3.org/2000/svg" height="512px" viewBox="0 -96 480 480" width="512px"><path d="m470.398438 119.199219-76.503907-76.511719c-7.097656-6.507812-16.273437-10.292969-25.894531-10.6875h-32v-24c0-4.417969-3.582031-8-8-8h-264c-4.417969 0-8 3.582031-8 8v24h-16c-22.082031.027344-39.9726562 17.917969-40 40v152c0 4.417969 3.582031 8 8 8h56.71875c-3.300781 18.859375 4.917969 37.878906 20.917969 48.394531 16.003906 10.515625 36.722656 10.515625 52.726562 0 16-10.515625 24.21875-29.535156 20.917969-48.394531h177.4375c-3.300781 18.859375 4.917969 37.878906 20.917969 48.394531 16.003906 10.515625 36.722656 10.515625 52.726562 0 16-10.515625 24.21875-29.535156 20.917969-48.394531h16.71875c17.671875 0 32-14.328125 32-32v-57.519531c.003906-8.722657-3.449219-17.09375-9.601562-23.28125zm-102.398438-71.199219c5.367188.40625 10.464844 2.519531 14.550781 6.023438l65.976563 65.976562h-96.527344v-72zm-48-16h-72v-16h72zm-160 0v-16h72v16zm-88-16h72v16h-72zm40 256c-17.671875 0-32-14.328125-32-32s14.328125-32 32-32 32 14.328125 32 32-14.328125 32-32 32zm272 0c-17.671875 0-32-14.328125-32-32s14.328125-32 32-32 32 14.328125 32 32-14.328125 32-32 32zm80-72c0 8.835938-7.164062 16-16 16h-22.496094c-8.546875-14.847656-24.371094-24-41.503906-24s-32.957031 9.152344-41.503906 24h-188.992188c-8.546875-14.847656-24.371094-24-41.503906-24s-32.957031 9.152344-41.503906 24h-54.496094v-144c0-13.253906 10.746094-24 24-24h296v80c0 4.417969 3.582031 8 8 8h118.671875c.867187 2.050781 1.320313 4.253906 1.328125 6.480469zm0 0" /><path d="m296 64h-224c-4.417969 0-8 3.582031-8 8v56c0 4.417969 3.582031 8 8 8h224c4.417969 0 8-3.582031 8-8v-56c0-4.417969-3.582031-8-8-8zm-216 16h96v40h-96zm208 40h-96v-40h96zm0 0"/></svg>
